<svg width="3203" height="554" viewBox="0 0 3203 554" fill="none" xmlns="http://www.w3.org/2000/svg">
<path d="M942.959 279.186V133.17H1050.62V408.795H929.629L781.562 240.426V408.795H674.102V133.17H821.963L942.959 279.186ZM1270.67 213.355L1232.73 294.771H1308.41L1270.67 213.355ZM1058.83 409.205L1206.69 133.58H1334.45L1482.31 409.205H1361.32L1339.58 362.037H1201.56L1179.82 409.205H1058.83ZM1733.74 274.469V133.17H1841.41V281.236C1841.82 385.416 1756.5 415.357 1653.14 415.562C1549.79 415.357 1464.47 385.416 1464.88 281.236V133.17H1572.34V274.469C1571.93 319.791 1609.05 327.584 1653.14 328.199C1697.03 327.584 1734.36 319.791 1733.74 274.469ZM2112.31 409.205H2004.85V220.943H1877.09V133.58H2240.08V220.943H2112.31V409.205ZM2276.17 133.17H2383.63V408.795H2276.17V133.17ZM2681 294.566H2791.12C2784.36 387.672 2702.73 415.562 2603.48 415.562C2500.12 415.357 2414.8 385.416 2415.21 281.031V260.934C2414.8 156.754 2500.12 126.812 2603.48 126.402C2702.73 126.607 2784.36 154.498 2791.12 247.398H2681C2670.95 220.328 2640.39 213.971 2603.48 213.971C2559.59 214.586 2522.27 222.379 2522.88 267.701V274.469C2522.27 319.381 2559.59 327.584 2603.48 328.199C2640.39 328.199 2671.15 321.637 2681 294.566ZM2986.77 213.355L2948.83 294.771H3024.5L2986.77 213.355ZM2774.92 409.205L2922.78 133.58H3050.55L3198.41 409.205H3077.41L3055.67 362.037H2917.66L2895.92 409.205H2774.92Z" fill="url(#paint0_linear_7_2)"/>
<path d="M350.201 12.2344L378.141 53.4639L386.682 66.0684L373.952 74.4209L316.412 112.173V207.944L400.996 159.824L405.452 91.9668L406.433 77.0225L421.379 77.9805L471.62 81.2012L486.615 82.1631L485.628 97.1562L481.508 159.743L538.769 187.616L552.425 194.264L545.607 207.836L523.307 252.236L516.659 265.47L503.342 258.994L441.153 228.752L356.953 276.646L441.177 324.522L503.367 294.28L516.685 287.804L523.331 301.037L545.633 345.438L552.448 359.009L538.796 365.657L481.558 393.527L485.679 456.118L486.666 471.119L471.663 472.073L421.396 475.27L406.453 476.22L405.477 461.277L401.045 393.428L316.412 345.339V441.125L373.952 478.878L386.682 487.23L378.141 499.835L350.201 541.064L341.91 553.299L329.554 545.19L276.239 510.202L222.9 545.191L210.54 553.3L202.252 541.059L174.338 499.829L165.806 487.228L178.53 478.878L236.07 441.125V345.339L151.434 393.429L146.98 461.282L146 476.212L131.067 475.27L80.8262 472.099L65.8164 471.15L66.8037 456.143L70.9238 393.529L13.6631 365.658L0.00390625 359.009L6.82617 345.436L29.1523 301.01L35.8037 287.775L49.1211 294.258L111.285 324.521L195.541 276.646L111.284 228.753L49.1211 259.016L35.8037 265.499L29.1523 252.265L6.82617 207.839L0 194.257L13.6719 187.612L70.9229 159.786L66.8037 97.1807L65.8164 82.1797L80.8193 81.2256L131.086 78.0293L146.029 77.0791L147.006 92.0215L151.437 159.868L236.07 207.938V112.173L178.53 74.4209L165.8 66.0684L174.342 53.4639L202.281 12.2344L210.572 0L222.929 8.1084L276.241 43.0947L329.554 8.1084L341.91 0L350.201 12.2344Z" fill="url(#paint1_linear_7_2)"/>
<defs>
<linearGradient id="paint0_linear_7_2" x1="645.5" y1="159" x2="3224.5" y2="409" gradientUnits="userSpaceOnUse">
<stop stop-color="#53ACFF"/>
<stop offset="1" stop-color="#2093FF"/>
</linearGradient>
<linearGradient id="paint1_linear_7_2" x1="-5.32095" y1="65.6494" x2="619.229" y2="471.649" gradientUnits="userSpaceOnUse">
<stop stop-color="#C3E2FF"/>
<stop offset="0.418269" stop-color="#B8DDFF"/>
<stop offset="1" stop-color="#6CB8FF"/>
</linearGradient>
</defs>
</svg>
