<svg width="553" height="554" viewBox="0 0 553 554" fill="none" xmlns="http://www.w3.org/2000/svg">
<path d="M350.201 12.2344L378.141 53.4639L386.682 66.0684L373.952 74.4209L316.412 112.173V207.944L400.996 159.824L405.452 91.9668L406.433 77.0225L421.379 77.9805L471.62 81.2012L486.615 82.1631L485.628 97.1562L481.508 159.743L538.769 187.616L552.425 194.264L545.607 207.836L523.307 252.236L516.659 265.47L503.342 258.994L441.153 228.752L356.953 276.646L441.177 324.522L503.367 294.28L516.685 287.804L523.331 301.037L545.633 345.438L552.448 359.009L538.796 365.657L481.558 393.527L485.679 456.118L486.666 471.119L471.663 472.073L421.396 475.27L406.453 476.22L405.477 461.277L401.044 393.427L316.412 345.339V441.125L373.952 478.878L386.682 487.23L378.141 499.835L350.201 541.064L341.91 553.299L329.554 545.19L276.239 510.202L222.9 545.191L210.54 553.3L202.252 541.059L174.338 499.829L165.806 487.228L178.53 478.878L236.07 441.125V345.339L151.434 393.429L146.98 461.282L146 476.212L131.067 475.27L80.8262 472.098L65.8164 471.15L66.8037 456.143L70.9238 393.529L13.6631 365.658L0.00390625 359.009L6.82617 345.436L29.1523 301.01L35.8037 287.775L49.1211 294.258L111.285 324.521L195.541 276.646L111.284 228.753L49.1211 259.016L35.8037 265.499L29.1523 252.265L6.82617 207.839L0 194.257L13.6719 187.612L70.9229 159.786L66.8037 97.1807L65.8164 82.1797L80.8193 81.2256L131.086 78.0293L146.029 77.0791L147.006 92.0215L151.437 159.868L236.07 207.938V112.173L178.53 74.4209L165.8 66.0684L174.342 53.4639L202.281 12.2344L210.572 0L222.929 8.1084L276.241 43.0947L329.554 8.1084L341.91 0L350.201 12.2344Z" fill="url(#paint0_linear_3_4)"/>
<defs>
<linearGradient id="paint0_linear_3_4" x1="-5.32095" y1="65.6494" x2="619.229" y2="471.649" gradientUnits="userSpaceOnUse">
<stop stop-color="#C3E2FF"/>
<stop offset="0.418269" stop-color="#B8DDFF"/>
<stop offset="1" stop-color="#6CB8FF"/>
</linearGradient>
</defs>
</svg>
