<svg width="2583" height="562" viewBox="0 0 2583 562" fill="none" xmlns="http://www.w3.org/2000/svg">
<path d="M860.969 186.094V74.8438H943V284.844H850.812L738 156.562V284.844H656.125V74.8438H768.781L860.969 186.094ZM1110.66 135.938L1081.75 197.969H1139.41L1110.66 135.938ZM949.25 285.156L1061.91 75.1562H1159.25L1271.91 285.156H1179.72L1163.16 249.219H1058L1041.44 285.156H949.25ZM1463.47 182.5V74.8438H1545.5V187.656C1545.81 267.031 1480.81 289.844 1402.06 290C1323.31 289.844 1258.31 267.031 1258.62 187.656V74.8438H1340.5V182.5C1340.19 217.031 1368.47 222.969 1402.06 223.438C1435.5 222.969 1463.94 217.031 1463.47 182.5ZM1751.91 285.156H1670.03V141.719H1572.69V75.1562H1849.25V141.719H1751.91V285.156ZM1876.75 74.8438H1958.62V284.844H1876.75V74.8438ZM2185.19 197.812H2269.09C2263.94 268.75 2201.75 290 2126.12 290C2047.38 289.844 1982.38 267.031 1982.69 187.5V172.188C1982.38 92.8125 2047.38 70 2126.12 69.6875C2201.75 69.8438 2263.94 91.0938 2269.09 161.875H2185.19C2177.53 141.25 2154.25 136.406 2126.12 136.406C2092.69 136.875 2064.25 142.812 2064.72 177.344V182.5C2064.25 216.719 2092.69 222.969 2126.12 223.438C2154.25 223.438 2177.69 218.438 2185.19 197.812ZM2418.16 135.938L2389.25 197.969H2446.91L2418.16 135.938ZM2256.75 285.156L2369.41 75.1562H2466.75L2579.41 285.156H2487.22L2470.66 249.219H2365.5L2348.94 285.156H2256.75Z" fill="white"/>
<path d="M350.201 20.2344L378.141 61.4639L386.682 74.0684L373.952 82.4209L316.412 120.173V215.944L400.996 167.824L405.452 99.9668L406.433 85.0225L421.379 85.9805L471.62 89.2012L486.615 90.1631L485.628 105.156L481.508 167.743L538.769 195.616L552.425 202.264L545.607 215.836L523.307 260.236L516.659 273.47L503.342 266.994L441.153 236.752L356.953 284.646L441.177 332.522L503.367 302.28L516.685 295.804L523.331 309.037L545.633 353.438L552.448 367.009L538.796 373.657L481.558 401.527L485.679 464.118L486.666 479.119L471.663 480.073L421.396 483.27L406.453 484.22L405.477 469.277L401.045 401.428L316.412 353.339V449.125L373.952 486.878L386.682 495.23L378.141 507.835L350.201 549.064L341.91 561.299L329.554 553.19L276.239 518.202L222.9 553.191L210.54 561.3L202.252 549.059L174.338 507.829L165.806 495.228L178.53 486.878L236.07 449.125V353.339L151.434 401.429L146.98 469.282L146 484.212L131.067 483.27L80.8262 480.099L65.8164 479.15L66.8037 464.143L70.9238 401.529L13.6631 373.658L0.00390625 367.009L6.82617 353.436L29.1523 309.01L35.8037 295.775L49.1211 302.258L111.285 332.521L195.541 284.646L111.284 236.753L49.1211 267.016L35.8037 273.499L29.1523 260.265L6.82617 215.839L0 202.257L13.6719 195.612L70.9229 167.786L66.8037 105.181L65.8164 90.1797L80.8193 89.2256L131.086 86.0293L146.029 85.0791L147.006 100.021L151.437 167.868L236.07 215.938V120.173L178.53 82.4209L165.8 74.0684L174.342 61.4639L202.281 20.2344L210.572 8L222.929 16.1084L276.241 51.0947L329.554 16.1084L341.91 8L350.201 20.2344Z" fill="white"/>
<path d="M669.74 456V330H710.78C718.94 330 726.14 331.68 732.38 335.04C738.74 338.4 743.66 343.08 747.14 349.08C750.74 355.08 752.54 362.04 752.54 369.96C752.54 377.64 750.92 384.48 747.68 390.48C744.44 396.48 740 401.22 734.36 404.7C728.72 408.06 722.18 409.74 714.74 409.74H685.04V456H669.74ZM685.04 395.88H714.74C721.34 395.88 726.74 393.48 730.94 388.68C735.26 383.76 737.42 377.52 737.42 369.96C737.42 362.16 734.9 355.86 729.86 351.06C724.82 346.26 718.4 343.86 710.6 343.86H685.04V395.88ZM796.52 458.16C785.96 458.16 777.68 455.76 771.68 450.96C765.8 446.04 762.86 439.26 762.86 430.62C762.86 421.5 765.86 414.54 771.86 409.74C777.98 404.82 786.5 402.36 797.42 402.36H822.44C821.84 393.84 819.74 387.48 816.14 383.28C812.54 378.96 807.14 376.8 799.94 376.8C795.02 376.8 790.76 377.82 787.16 379.86C783.68 381.78 780.8 384.9 778.52 389.22L765.56 384.18C767.84 379.98 770.6 376.38 773.84 373.38C777.08 370.26 780.86 367.92 785.18 366.36C789.5 364.68 794.42 363.84 799.94 363.84C808.34 363.84 815.24 365.52 820.64 368.88C826.16 372.12 830.3 376.98 833.06 383.46C835.82 389.82 837.14 397.74 837.02 407.22L836.84 456H823.52L822.8 443.94C820.16 448.5 816.62 452.04 812.18 454.56C807.74 456.96 802.52 458.16 796.52 458.16ZM797.24 445.56C802.4 445.56 806.9 444.48 810.74 442.32C814.58 440.04 817.52 436.86 819.56 432.78C821.72 428.7 822.8 423.78 822.8 418.02V414.42H800.66C792.26 414.42 786.26 415.8 782.66 418.56C779.18 421.32 777.44 425.28 777.44 430.44C777.44 435.12 779.18 438.84 782.66 441.6C786.14 444.24 791 445.56 797.24 445.56ZM899.978 458.16C891.098 458.16 883.238 456.18 876.398 452.22C869.558 448.14 864.218 442.56 860.378 435.48C856.538 428.4 854.618 420.24 854.618 411C854.618 401.76 856.478 393.6 860.198 386.52C864.038 379.44 869.378 373.92 876.218 369.96C883.058 365.88 890.858 363.84 899.618 363.84C908.258 363.84 915.998 365.82 922.838 369.78C929.678 373.74 934.898 379.32 938.498 386.52L925.358 392.46C922.958 387.66 919.478 383.94 914.918 381.3C910.358 378.54 905.138 377.16 899.258 377.16C893.378 377.16 888.158 378.6 883.598 381.48C879.158 384.36 875.618 388.38 872.978 393.54C870.458 398.58 869.198 404.4 869.198 411C869.198 417.6 870.458 423.48 872.978 428.64C875.618 433.68 879.218 437.64 883.778 440.52C888.458 443.4 893.738 444.84 899.618 444.84C905.498 444.84 910.718 443.34 915.278 440.34C919.958 437.34 923.498 433.14 925.898 427.74L939.038 433.68C935.438 441.36 930.218 447.36 923.378 451.68C916.538 456 908.738 458.16 899.978 458.16ZM957.221 456V330H971.621V406.68L1009.96 366H1028.14L994.661 402L1031.74 456H1013.92L985.121 412.44L971.621 426.66V456H957.221ZM1071.09 458.16C1060.53 458.16 1052.25 455.76 1046.25 450.96C1040.37 446.04 1037.43 439.26 1037.43 430.62C1037.43 421.5 1040.43 414.54 1046.43 409.74C1052.55 404.82 1061.07 402.36 1071.99 402.36H1097.01C1096.41 393.84 1094.31 387.48 1090.71 383.28C1087.11 378.96 1081.71 376.8 1074.51 376.8C1069.59 376.8 1065.33 377.82 1061.73 379.86C1058.25 381.78 1055.37 384.9 1053.09 389.22L1040.13 384.18C1042.41 379.98 1045.17 376.38 1048.41 373.38C1051.65 370.26 1055.43 367.92 1059.75 366.36C1064.07 364.68 1068.99 363.84 1074.51 363.84C1082.91 363.84 1089.81 365.52 1095.21 368.88C1100.73 372.12 1104.87 376.98 1107.63 383.46C1110.39 389.82 1111.71 397.74 1111.59 407.22L1111.41 456H1098.09L1097.37 443.94C1094.73 448.5 1091.19 452.04 1086.75 454.56C1082.31 456.96 1077.09 458.16 1071.09 458.16ZM1071.81 445.56C1076.97 445.56 1081.47 444.48 1085.31 442.32C1089.15 440.04 1092.09 436.86 1094.13 432.78C1096.29 428.7 1097.37 423.78 1097.37 418.02V414.42H1075.23C1066.83 414.42 1060.83 415.8 1057.23 418.56C1053.75 421.32 1052.01 425.28 1052.01 430.44C1052.01 435.12 1053.75 438.84 1057.23 441.6C1060.71 444.24 1065.57 445.56 1071.81 445.56ZM1170.41 494.16C1164.65 494.16 1159.37 493.56 1154.57 492.36C1149.89 491.28 1145.87 490.02 1142.51 488.58C1139.27 487.26 1136.93 486.12 1135.49 485.16L1140.89 473.46C1142.45 474.3 1144.67 475.32 1147.55 476.52C1150.43 477.84 1153.79 478.92 1157.63 479.76C1161.59 480.72 1165.79 481.2 1170.23 481.2C1175.99 481.2 1181.15 480 1185.71 477.6C1190.39 475.32 1193.99 471.66 1196.51 466.62C1199.15 461.7 1200.47 455.34 1200.47 447.54V438C1197.23 443.4 1192.97 447.66 1187.69 450.78C1182.41 453.78 1176.47 455.28 1169.87 455.28C1161.83 455.28 1154.75 453.36 1148.63 449.52C1142.51 445.68 1137.71 440.34 1134.23 433.5C1130.87 426.54 1129.19 418.62 1129.19 409.74C1129.19 400.62 1130.87 392.64 1134.23 385.8C1137.71 378.84 1142.51 373.44 1148.63 369.6C1154.75 365.76 1161.83 363.84 1169.87 363.84C1176.47 363.84 1182.41 365.34 1187.69 368.34C1192.97 371.34 1197.23 375.6 1200.47 381.12V366H1214.87V447.36C1214.87 457.68 1212.95 466.32 1209.11 473.28C1205.27 480.24 1199.99 485.46 1193.27 488.94C1186.55 492.42 1178.93 494.16 1170.41 494.16ZM1173.29 442.86C1178.57 442.86 1183.25 441.42 1187.33 438.54C1191.41 435.66 1194.59 431.76 1196.87 426.84C1199.15 421.8 1200.29 415.98 1200.29 409.38C1200.29 403.02 1199.09 397.38 1196.69 392.46C1194.41 387.42 1191.23 383.52 1187.15 380.76C1183.19 377.88 1178.51 376.44 1173.11 376.44C1167.47 376.44 1162.43 377.88 1157.99 380.76C1153.67 383.52 1150.25 387.42 1147.73 392.46C1145.33 397.38 1144.13 403.02 1144.13 409.38C1144.13 415.98 1145.39 421.8 1147.91 426.84C1150.43 431.76 1153.85 435.66 1158.17 438.54C1162.61 441.42 1167.65 442.86 1173.29 442.86ZM1279.47 458.16C1270.71 458.16 1262.97 456.18 1256.25 452.22C1249.53 448.14 1244.25 442.56 1240.41 435.48C1236.69 428.4 1234.83 420.24 1234.83 411C1234.83 401.76 1236.69 393.6 1240.41 386.52C1244.25 379.44 1249.47 373.92 1256.07 369.96C1262.79 365.88 1270.47 363.84 1279.11 363.84C1287.51 363.84 1294.77 365.94 1300.89 370.14C1307.01 374.22 1311.75 379.98 1315.11 387.42C1318.47 394.86 1320.15 403.62 1320.15 413.7H1249.41C1250.01 423.54 1253.13 431.22 1258.77 436.74C1264.41 442.26 1271.55 445.02 1280.19 445.02C1286.55 445.02 1291.89 443.52 1296.21 440.52C1300.65 437.52 1304.07 433.56 1306.47 428.64L1318.89 434.94C1316.61 439.62 1313.55 443.7 1309.71 447.18C1305.99 450.66 1301.55 453.36 1296.39 455.28C1291.35 457.2 1285.71 458.16 1279.47 458.16ZM1250.49 401.64H1304.67C1304.31 396.48 1302.93 392.04 1300.53 388.32C1298.25 384.6 1295.25 381.72 1291.53 379.68C1287.81 377.64 1283.61 376.62 1278.93 376.62C1274.37 376.62 1269.99 377.64 1265.79 379.68C1261.59 381.6 1258.11 384.48 1255.35 388.32C1252.59 392.04 1250.97 396.48 1250.49 401.64ZM1386.93 456V330H1427.97C1436.13 330 1443.33 331.62 1449.57 334.86C1455.93 338.1 1460.85 342.6 1464.33 348.36C1467.93 354.12 1469.73 360.72 1469.73 368.16C1469.73 376.44 1467.33 383.7 1462.53 389.94C1457.85 396.06 1451.67 400.56 1443.99 403.44L1474.77 456H1458.03L1429.05 406.32C1428.21 406.44 1427.37 406.5 1426.53 406.5C1425.69 406.5 1424.85 406.5 1424.01 406.5H1402.23V456H1386.93ZM1402.23 392.46H1430.13C1434.69 392.46 1438.77 391.44 1442.37 389.4C1445.97 387.24 1448.85 384.36 1451.01 380.76C1453.29 377.04 1454.43 372.84 1454.43 368.16C1454.43 360.96 1451.91 355.14 1446.87 350.7C1441.95 346.14 1435.53 343.86 1427.61 343.86H1402.23V392.46ZM1534.88 458.16C1526.12 458.16 1518.38 456.18 1511.66 452.22C1504.94 448.14 1499.66 442.56 1495.82 435.48C1492.1 428.4 1490.24 420.24 1490.24 411C1490.24 401.76 1492.1 393.6 1495.82 386.52C1499.66 379.44 1504.88 373.92 1511.48 369.96C1518.2 365.88 1525.88 363.84 1534.52 363.84C1542.92 363.84 1550.18 365.94 1556.3 370.14C1562.42 374.22 1567.16 379.98 1570.52 387.42C1573.88 394.86 1575.56 403.62 1575.56 413.7H1504.82C1505.42 423.54 1508.54 431.22 1514.18 436.74C1519.82 442.26 1526.96 445.02 1535.6 445.02C1541.96 445.02 1547.3 443.52 1551.62 440.52C1556.06 437.52 1559.48 433.56 1561.88 428.64L1574.3 434.94C1572.02 439.62 1568.96 443.7 1565.12 447.18C1561.4 450.66 1556.96 453.36 1551.8 455.28C1546.76 457.2 1541.12 458.16 1534.88 458.16ZM1505.9 401.64H1560.08C1559.72 396.48 1558.34 392.04 1555.94 388.32C1553.66 384.6 1550.66 381.72 1546.94 379.68C1543.22 377.64 1539.02 376.62 1534.34 376.62C1529.78 376.62 1525.4 377.64 1521.2 379.68C1517 381.6 1513.52 384.48 1510.76 388.32C1508 392.04 1506.38 396.48 1505.9 401.64ZM1629.73 494.16C1623.97 494.16 1618.69 493.56 1613.89 492.36C1609.21 491.28 1605.19 490.02 1601.83 488.58C1598.59 487.26 1596.25 486.12 1594.81 485.16L1600.21 473.46C1601.77 474.3 1603.99 475.32 1606.87 476.52C1609.75 477.84 1613.11 478.92 1616.95 479.76C1620.91 480.72 1625.11 481.2 1629.55 481.2C1635.31 481.2 1640.47 480 1645.03 477.6C1649.71 475.32 1653.31 471.66 1655.83 466.62C1658.47 461.7 1659.79 455.34 1659.79 447.54V438C1656.55 443.4 1652.29 447.66 1647.01 450.78C1641.73 453.78 1635.79 455.28 1629.19 455.28C1621.15 455.28 1614.07 453.36 1607.95 449.52C1601.83 445.68 1597.03 440.34 1593.55 433.5C1590.19 426.54 1588.51 418.62 1588.51 409.74C1588.51 400.62 1590.19 392.64 1593.55 385.8C1597.03 378.84 1601.83 373.44 1607.95 369.6C1614.07 365.76 1621.15 363.84 1629.19 363.84C1635.79 363.84 1641.73 365.34 1647.01 368.34C1652.29 371.34 1656.55 375.6 1659.79 381.12V366H1674.19V447.36C1674.19 457.68 1672.27 466.32 1668.43 473.28C1664.59 480.24 1659.31 485.46 1652.59 488.94C1645.87 492.42 1638.25 494.16 1629.73 494.16ZM1632.61 442.86C1637.89 442.86 1642.57 441.42 1646.65 438.54C1650.73 435.66 1653.91 431.76 1656.19 426.84C1658.47 421.8 1659.61 415.98 1659.61 409.38C1659.61 403.02 1658.41 397.38 1656.01 392.46C1653.73 387.42 1650.55 383.52 1646.47 380.76C1642.51 377.88 1637.83 376.44 1632.43 376.44C1626.79 376.44 1621.75 377.88 1617.31 380.76C1612.99 383.52 1609.57 387.42 1607.05 392.46C1604.65 397.38 1603.45 403.02 1603.45 409.38C1603.45 415.98 1604.71 421.8 1607.23 426.84C1609.75 431.76 1613.17 435.66 1617.49 438.54C1621.93 441.42 1626.97 442.86 1632.61 442.86ZM1700.27 456V366H1714.67V456H1700.27ZM1707.65 345.12C1705.25 345.12 1703.15 344.22 1701.35 342.42C1699.55 340.62 1698.65 338.52 1698.65 336.12C1698.65 333.6 1699.55 331.5 1701.35 329.82C1703.15 328.02 1705.25 327.12 1707.65 327.12C1710.17 327.12 1712.27 328.02 1713.95 329.82C1715.75 331.5 1716.65 333.6 1716.65 336.12C1716.65 338.52 1715.75 340.62 1713.95 342.42C1712.27 344.22 1710.17 345.12 1707.65 345.12ZM1772.71 458.16C1766.11 458.16 1760.35 457.2 1755.43 455.28C1750.51 453.24 1746.37 450.6 1743.01 447.36C1739.77 444.12 1737.43 440.58 1735.99 436.74L1748.59 431.52C1750.63 435.6 1753.69 438.9 1757.77 441.42C1761.85 443.94 1766.35 445.2 1771.27 445.2C1776.91 445.2 1781.65 444.12 1785.49 441.96C1789.33 439.68 1791.25 436.5 1791.25 432.42C1791.25 428.7 1789.81 425.7 1786.93 423.42C1784.17 421.14 1780.03 419.28 1774.51 417.84L1765.87 415.5C1757.71 413.34 1751.35 410.1 1746.79 405.78C1742.23 401.34 1739.95 396.36 1739.95 390.84C1739.95 382.32 1742.71 375.72 1748.23 371.04C1753.87 366.24 1762.21 363.84 1773.25 363.84C1778.53 363.84 1783.33 364.62 1787.65 366.18C1791.97 367.74 1795.69 369.96 1798.81 372.84C1801.93 375.6 1804.21 378.9 1805.65 382.74L1793.05 388.32C1791.49 384.24 1788.91 381.3 1785.31 379.5C1781.71 377.7 1777.33 376.8 1772.17 376.8C1766.65 376.8 1762.33 378 1759.21 380.4C1756.09 382.68 1754.53 385.92 1754.53 390.12C1754.53 392.52 1755.79 394.8 1758.31 396.96C1760.95 399 1764.79 400.68 1769.83 402L1778.83 404.34C1784.71 405.78 1789.63 407.94 1793.59 410.82C1797.55 413.58 1800.55 416.76 1802.59 420.36C1804.63 423.96 1805.65 427.8 1805.65 431.88C1805.65 437.28 1804.21 441.96 1801.33 445.92C1798.45 449.88 1794.55 452.94 1789.63 455.1C1784.71 457.14 1779.07 458.16 1772.71 458.16ZM1858.89 458.16C1850.13 458.16 1843.35 455.88 1838.55 451.32C1833.75 446.76 1831.35 440.34 1831.35 432.06V378.78H1815.69V366H1831.35V337.92H1845.75V366H1872.75V378.78H1845.75V430.62C1845.75 435.18 1846.95 438.72 1849.35 441.24C1851.87 443.64 1855.35 444.84 1859.79 444.84C1861.23 444.84 1862.61 444.66 1863.93 444.3C1865.37 443.82 1867.23 442.74 1869.51 441.06L1875.09 452.76C1871.97 454.8 1869.15 456.18 1866.63 456.9C1864.11 457.74 1861.53 458.16 1858.89 458.16ZM1893.08 456V366H1907.48V382.02C1911.08 376.38 1915.7 372.24 1921.34 369.6C1927.1 366.96 1933.1 365.64 1939.34 365.64V379.14C1934.06 379.14 1928.96 380.04 1924.04 381.84C1919.24 383.52 1915.28 386.34 1912.16 390.3C1909.04 394.26 1907.48 399.66 1907.48 406.5V456H1893.08ZM1962 494.16C1959.72 494.16 1957.08 493.68 1954.08 492.72C1951.08 491.88 1947.9 490.74 1944.54 489.3L1949.94 477.24C1952.7 478.44 1955.1 479.34 1957.14 479.94C1959.3 480.54 1960.98 480.84 1962.18 480.84C1965.42 480.84 1968.06 479.94 1970.1 478.14C1972.26 476.46 1974.06 474 1975.5 470.76L1981.62 455.64L1942.92 366H1958.22L1988.82 438.9L2019.06 366H2034.54L1991.34 468.6C1989.06 473.88 1986.66 478.44 1984.14 482.28C1981.74 486.12 1978.8 489.06 1975.32 491.1C1971.84 493.14 1967.4 494.16 1962 494.16Z" fill="white"/>
</svg>
