<svg width="2525" height="290" viewBox="0 0 2525 290" fill="none" xmlns="http://www.w3.org/2000/svg">
<path d="M268.857 152.783V6.76758H376.523V282.393H255.527L107.461 114.023V282.393H0V6.76758H147.861L268.857 152.783ZM596.572 86.9531L558.633 168.369H634.307L596.572 86.9531ZM384.727 282.803L532.588 7.17773H660.352L808.213 282.803H687.217L665.479 235.635H527.461L505.723 282.803H384.727ZM1059.64 148.066V6.76758H1167.3V154.834C1167.71 259.014 1082.4 288.955 979.043 289.16C875.684 288.955 790.371 259.014 790.781 154.834V6.76758H898.242V148.066C897.832 193.389 934.951 201.182 979.043 201.797C1022.93 201.182 1060.25 193.389 1059.64 148.066ZM1438.21 282.803H1330.75V94.541H1202.99V7.17773H1565.98V94.541H1438.21V282.803ZM1602.07 6.76758H1709.53V282.393H1602.07V6.76758ZM2006.89 168.164H2117.02C2110.25 261.27 2028.63 289.16 1929.38 289.16C1826.02 288.955 1740.7 259.014 1741.11 154.629V134.531C1740.7 30.3516 1826.02 0.410156 1929.38 0C2028.63 0.205078 2110.25 28.0957 2117.02 120.996H2006.89C1996.85 93.9258 1966.29 87.5684 1929.38 87.5684C1885.49 88.1836 1848.16 95.9766 1848.78 141.299V148.066C1848.16 192.979 1885.49 201.182 1929.38 201.797C1966.29 201.797 1997.05 195.234 2006.89 168.164ZM2312.67 86.9531L2274.73 168.369H2350.4L2312.67 86.9531ZM2100.82 282.803L2248.68 7.17773H2376.45L2524.31 282.803H2403.31L2381.57 235.635H2243.55L2221.82 282.803H2100.82Z" fill="url(#paint0_linear_7_3)"/>
<defs>
<linearGradient id="paint0_linear_7_3" x1="-28.6016" y1="32.5977" x2="2550.4" y2="282.598" gradientUnits="userSpaceOnUse">
<stop stop-color="#53ACFF"/>
<stop offset="1" stop-color="#2093FF"/>
</linearGradient>
</defs>
</svg>
